<?xml version="1.0" encoding="UTF-8"?>
<svg xmlns="http://www.w3.org/2000/svg" viewBox="91 50 149 67"
     version="1.1">
    <g id="surface1">
        <path style=" stroke:none;fill-rule:nonzero;fill:rgb(0%,0%,0%);fill-opacity:1;"
              d="M 92.035156 73.398438 L 93.53125 76.359375 L 98.820312 76.359375 L 104.890625 88.511719 L 110.960938 100.667969 L 117.652344 100.667969 L 110.121094 85.550781 L 102.558594 70.4375 L 90.574219 70.4375 Z M 92.035156 73.398438 "/>
        <path
              d="M 109.25 70.59375 C 109.25 70.6875 112.609375 77.480469 116.71875 85.707031 L 124.1875 100.667969 L 130.101562 100.667969 L 134.925781 91.007812 C 137.574219 85.707031 139.75 81.21875 139.75 81.09375 C 139.75 80.941406 138.289062 80.816406 136.484375 80.785156 L 133.214844 80.753906 L 130.226562 86.738281 C 128.578125 90.039062 127.175781 92.78125 127.144531 92.84375 C 127.019531 92.9375 118.898438 76.824219 118.898438 76.515625 C 118.898438 76.421875 125.589844 76.359375 133.804688 76.359375 L 148.683594 76.359375 L 142.675781 88.417969 C 139.347656 95.058594 136.640625 100.511719 136.640625 100.574219 C 136.640625 100.636719 138.132812 100.667969 140 100.667969 L 143.332031 100.667969 L 150.894531 85.550781 L 158.425781 70.4375 L 133.835938 70.4375 C 120.296875 70.4375 109.25 70.5 109.25 70.59375 Z M 109.25 70.59375 "/>
        <path style=" stroke:none;fill-rule:nonzero;fill:rgb(0%,0%,0%);fill-opacity:1;"
              d="M 112.703125 106.902344 C 107.164062 108.210938 108.066406 116.5625 113.761719 116.5625 C 115.628906 116.5625 117 115.910156 117.902344 114.570312 C 120.484375 110.765625 117.15625 105.84375 112.703125 106.902344 Z M 112.703125 106.902344 "/>
        <path style=" stroke:none;fill-rule:nonzero;fill:rgb(0%,0%,0%);fill-opacity:1;"
              d="M 139.222656 106.902344 C 136.980469 107.429688 135.394531 109.457031 135.394531 111.761719 C 135.394531 113.382812 136.667969 115.410156 138.070312 116.097656 C 139.503906 116.78125 142.085938 116.625 143.269531 115.753906 C 144.296875 115.035156 145.355469 112.949219 145.355469 111.703125 C 145.324219 108.585938 142.242188 106.152344 139.222656 106.902344 Z M 139.222656 106.902344 "/>
    </g>
</svg>
